<?xml version="1.0" encoding="UTF-8" standalone="no"?>
<!DOCTYPE svg PUBLIC "-//W3C//DTD SVG 1.1//EN" "http://www.w3.org/Graphics/SVG/1.1/DTD/svg11.dtd">
<svg width="100%" height="100%" viewBox="0 0 500 500" version="1.1" xmlns="http://www.w3.org/2000/svg" xmlns:xlink="http://www.w3.org/1999/xlink" xml:space="preserve" style="fill-rule:evenodd;clip-rule:evenodd;stroke-linejoin:round;stroke-miterlimit:1.41421;">
    <g transform="matrix(1.49954,0,0,1.94767,2.07315,123.721)">
        <path d="M118,61.239C118,56.14 112.623,52 106,52L10,52C3.377,52 -2,56.14 -2,61.239L-2,214.761C-2,219.86 3.377,224 10,224L106,224C112.623,224 118,219.86 118,214.761L118,61.239Z" style="fill:rgb(0,170,141);"/>
        <clipPath id="_clip1">
            <path d="M118,61.239C118,56.14 112.623,52 106,52L10,52C3.377,52 -2,56.14 -2,61.239L-2,214.761C-2,219.86 3.377,224 10,224L106,224C112.623,224 118,219.86 118,214.761L118,61.239Z"/>
        </clipPath>
        <g clip-path="url(#_clip1)">
            <g transform="matrix(0.97561,0,0,1,-0.0487805,18)">
                <path d="M108,101.75C108,100.232 106.36,99 104.339,99L72.661,99C70.64,99 69,100.232 69,101.75L69,107.25C69,108.768 70.64,110 72.661,110L104.339,110C106.36,110 108,108.768 108,107.25L108,101.75Z" style="fill:white;"/>
            </g>
            <g transform="matrix(0.97561,0,0,1,-0.0487805,0)">
                <path d="M108,101.75C108,100.232 106.36,99 104.339,99L72.661,99C70.64,99 69,100.232 69,101.75L69,107.25C69,108.768 70.64,110 72.661,110L104.339,110C106.36,110 108,108.768 108,107.25L108,101.75Z" style="fill:white;"/>
            </g>
            <g transform="matrix(0.97561,0,0,1,-0.0487805,0)">
                <path d="M111,77.5C111,76.12 109.509,75 107.672,75L35.328,75C33.491,75 32,76.12 32,77.5L32,82.5C32,83.88 33.491,85 35.328,85L107.672,85C109.509,85 111,83.88 111,82.5L111,77.5Z" style="fill:white;"/>
            </g>
        </g>
    </g>
    <g transform="matrix(1.23457,0,0,1.4026,-127.13,280.987)">
        <path d="M381,66.6C381,32.602 344.705,5 300,5C255.295,5 219,32.602 219,66.6C219,86.691 231.884,105.52 253.521,117.049L243.3,159L279.013,126.096C285.857,127.493 292.913,128.2 300,128.2C344.705,128.2 381,100.598 381,66.6Z" style="fill:rgb(156,39,176);"/>
    </g>
    <g transform="matrix(1.31852,0,0,1.42222,-41.2111,234.544)">
        <path d="M407,119.5C407,107.082 396.125,97 382.73,97L251.27,97C237.875,97 227,107.082 227,119.5L227,164.5C227,176.918 237.875,187 251.27,187L382.73,187C396.125,187 407,176.918 407,164.5L407,119.5Z" style="fill:rgb(0,170,141);"/>
    </g>
    <g transform="matrix(1.39789,0,0,1.56202,-459.618,100.53)">
        <path d="M634.5,94L688,143.5L634.5,193L581,143.5L634.5,94Z" style="fill:rgb(156,39,176);"/>
    </g>
</svg>
